<?xml version="1.0" standalone="no"?><svg xmlns="http://www.w3.org/2000/svg" viewBox="0 0 1440 320"><path fill="#FF8319" fill-opacity="0.5" d="M0,128L34.3,133.3C68.6,139,137,149,206,138.7C274.3,128,343,96,411,85.3C480,75,549,85,617,117.3C685.7,149,754,203,823,197.3C891.4,192,960,128,1029,106.7C1097.1,85,1166,107,1234,96C1302.9,85,1371,43,1406,21.3L1440,0L1440,320L1405.7,320C1371.4,320,1303,320,1234,320C1165.7,320,1097,320,1029,320C960,320,891,320,823,320C754.3,320,686,320,617,320C548.6,320,480,320,411,320C342.9,320,274,320,206,320C137.1,320,69,320,34,320L0,320Z"></path></svg>