<?xml version="1.0" standalone="no"?><svg xmlns="http://www.w3.org/2000/svg" viewBox="0 0 1440 320"><path fill="#FF8319" fill-opacity="1" d="M0,0L34.3,10.7C68.6,21,137,43,206,64C274.3,85,343,107,411,133.3C480,160,549,192,617,176C685.7,160,754,96,823,85.3C891.4,75,960,117,1029,138.7C1097.1,160,1166,160,1234,165.3C1302.9,171,1371,181,1406,186.7L1440,192L1440,320L1405.7,320C1371.4,320,1303,320,1234,320C1165.7,320,1097,320,1029,320C960,320,891,320,823,320C754.3,320,686,320,617,320C548.6,320,480,320,411,320C342.9,320,274,320,206,320C137.1,320,69,320,34,320L0,320Z"></path></svg>